#!OML:ASF X:\für Bonn\!DataBase\2005_08_10_Bjorn_Final\c3d\bjorn.ASF
:FULLY-SPECIFIED
:DEGREES
107
root -21.4601 19.4442 0.168427 -284.938 -88.8795 -70.4837
lowerback -13.3775 6.25127 -4.51526
upperback 3.26886 9.76967 -7.45591
thorax 11.7275 4.55157 -3.38295
lowerneck -4.02251 -7.88217 5.99683
upperneck 11.1869 -11.0656 -1.03621
head 3.97803 -5.3081 -1.86301
rclavicle 7.03698e-014 -5.08889e-014
rhumerus 44.2036 9.99665 -32.0921
rradius 50.2374
rwrist -29.8367
rhand -0.563447 4.84974
rfingers 7.12502
rthumb 25.0506 -23.5274
lclavicle 7.03698e-014 -5.08889e-014
lhumerus -24.3751 30.5186 68.3461
lradius 12.2993
lwrist -55.4794
lhand -16.2551 -5.60333
lfingers 7.12502
lthumb 9.95408 24.1413
rfemur -12.2525 -14.3912 17.8675
rtibia 25.0491
rfoot -8.90874 19.652
rtoes 3.72086
lfemur -11.4523 14.4153 -16.1231
ltibia 24.499
lfoot -9.94115 -15.6037
ltoes -0.893452
108
root -21.4596 19.4447 0.172106 -283.667 -88.9018 -71.7606
lowerback -13.3953 6.24632 -4.47642
upperback 3.28668 9.75816 -7.41582
thorax 11.7563 4.54712 -3.36033
lowerneck -4.07671 -7.87936 5.90158
upperneck 11.5056 -11.0884 -0.911386
head 4.11574 -5.31002 -1.82494
rclavicle -5.88403e-014 5.08889e-014
rhumerus 43.7925 9.77177 -32.4513
rradius 50.8875
rwrist -30.1398
rhand -0.928691 4.94232
rfingers 7.12502
rthumb 24.7006 -23.4832
lclavicle -5.88403e-014 5.08889e-014
lhumerus -24.5448 31.1082 68.0864
lradius 12.1724
lwrist -56.1382
lhand -16.1841 -5.74118
lfingers 7.12502
lthumb 10.0225 24.0002
rfemur -12.2449 -14.4108 17.8367
rtibia 25.0352
rfoot -8.87354 19.6987
rtoes 3.74551
lfemur -11.4467 14.428 -16.1508
ltibia 24.5083
lfoot -9.96084 -15.5824
ltoes -0.923973
109
root -21.4585 19.4442 0.1754 -282.147 -88.9096 -73.2805
lowerback -13.4104 6.22671 -4.43749
upperback 3.29701 9.72478 -7.36264
thorax 11.7709 4.53224 -3.32896
lowerneck -4.14409 -7.86499 5.81439
upperneck 11.8403 -11.0972 -0.802417
head 4.26198 -5.30485 -1.79429
rclavicle 1.145e-013 -6.04305e-014
rhumerus 43.3793 9.55479 -32.8187
rradius 51.5863
rwrist -30.465
rhand -1.27415 5.06221
rfingers 7.12502
rthumb 24.3694 -23.4083
lclavicle 1.145e-013 -6.04305e-014
lhumerus -24.7596 31.8066 67.784
lradius 12.0483
lwrist -56.8387
lhand -16.095 -5.87739
lfingers 7.12502
lthumb 10.1085 23.8598
rfemur -12.2429 -14.3571 17.8268
rtibia 25.0223
rfoot -8.86428 19.6765
rtoes 3.76461
lfemur -11.446 14.4438 -16.1588
ltibia 24.5171
lfoot -9.9527 -15.5817
ltoes -0.799615
110
root -21.4571 19.444 0.178817 -281.235 -88.9297 -74.2062
lowerback -13.3972 6.213 -4.39649
upperback 3.30771 9.69722 -7.32366
thorax 11.7728 4.52129 -3.3157
lowerneck -4.18323 -7.8557 5.73147
upperneck 12.1598 -11.1145 -0.671347
head 4.39899 -5.30325 -1.75491
rclavicle 7.31528e-014 -2.8625e-014
rhumerus 42.9047 9.28782 -33.2715
rradius 52.3044
rwrist -30.7604
rhand -1.6177 5.21191
rfingers 7.12502
rthumb 24.04 -23.3025
lclavicle 7.31528e-014 -2.8625e-014
lhumerus -24.9499 32.2865 67.5425
lradius 11.9521
lwrist -57.359
lhand -16.0158 -5.99508
lfingers 7.12502
lthumb 10.1849 23.7384
rfemur -12.2248 -14.3512 17.7947
rtibia 25.0115
rfoot -8.84993 19.6913
rtoes 3.76481
lfemur -11.4338 14.4486 -16.1847
ltibia 24.5226
lfoot -9.96448 -15.5636
ltoes -0.81204
111
root -21.456 19.4442 0.182036 -280.178 -88.9379 -75.2622
lowerback -13.3999 6.2063 -4.33955
upperback 3.31522 9.67855 -7.29462
thorax 11.7857 4.51581 -3.31845
lowerneck -4.25236 -7.85341 5.69997
upperneck 12.5002 -11.1495 -0.544107
head 4.54693 -5.30754 -1.72839
rclavicle -2.98177e-014 3.18055e-014
rhumerus 42.3799 8.98665 -33.7782
rradius 53.0724
rwrist -31.003
rhand -2.00611 5.36605
rfingers 7.12502
rthumb 23.6675 -23.197
lclavicle -2.98177e-014 3.18055e-014
lhumerus -25.0948 32.624 67.3436
lradius 11.8637
lwrist -57.7739
lhand -15.9513 -6.06981
lfingers 7.12502
lthumb 10.2471 23.6606
rfemur -12.2241 -14.313 17.787
rtibia 24.998
rfoot -8.86913 19.661
rtoes 3.62935
lfemur -11.4385 14.4564 -16.1997
ltibia 24.5287
lfoot -9.94723 -15.5436
ltoes -0.68225
112
root -21.4552 19.4445 0.185192 -278.763 -88.9587 -76.6767
lowerback -13.409 6.18724 -4.31233
upperback 3.32661 9.64733 -7.24397
thorax 11.7967 4.50122 -3.28364
lowerneck -4.29189 -7.84644 5.61426
upperneck 12.8256 -11.1731 -0.408473
head 4.68855 -5.30853 -1.68729
rclavicle 1.63003e-014 -2.22639e-014
rhumerus 41.8553 8.70202 -34.2371
rradius 53.9124
rwrist -31.3134
rhand -2.40219 5.51164
rfingers 7.12502
rthumb 23.2876 -23.1
lclavicle 1.63003e-014 -2.22639e-014
lhumerus -25.2743 32.9223 67.1869
lradius 11.8101
lwrist -58.078
lhand -15.8699 -6.13159
lfingers 7.12502
lthumb 10.3257 23.5949
rfemur -12.2272 -14.317 17.7596
rtibia 24.9882
rfoot -8.84123 19.6913
rtoes 3.6445
lfemur -11.439 14.4711 -16.2288
ltibia 24.5324
lfoot -9.96622 -15.5117
ltoes -0.736786
